<?xml version="1.0" encoding="UTF-8"?>
<svg id="Lag_1" data-name="Lag 1" xmlns="http://www.w3.org/2000/svg" viewBox="0 0 260.09 190.56">
  <defs>
    <style>
      .cls-1 {
        fill: #6f8faf;
        stroke: #1f2a44;
        stroke-width: 2px;
      }

      .cls-1, .cls-2 {
        stroke-miterlimit: 10;
      }

      .cls-2 {
        fill: #f5f8fc;
        stroke: #000;
      }
    </style>
  </defs>
  <polygon class="cls-1" points="1.15 189.56 250.57 189.56 259.03 57.45 19.12 57.45 1.15 189.56"/>
  <path class="cls-1" d="M2.01,183.94L1.15,14.57C1.11,7.14,7.13,1.1,14.56,1.1h63.09c.29,0-.17-.23,0,0l17.1,23.41c.17.23.43.37.72.37h139.84c4.23,0,7.67,3.43,7.67,7.67v19.29H19.98L2.01,183.95h0Z"/>
  <polyline class="cls-2" points="1.15 183.94 12.29 49.76 249.2 49.76 249.2 57.36 19.12 57.36"/>
  <g>
    <path d="M59.3,122.01h-.1l-5.81,3.66-.87-4.02,7.3-4.56h3.86v39h-4.37v-34.08h-.01Z"/>
    <path d="M80.61,152.97c0-2.22,1.29-3.78,3.09-3.78s3.03,1.56,3.03,3.78-1.18,3.78-3.08,3.78c-1.8,0-3.03-1.62-3.03-3.78h-.01Z"/>
    <path d="M112.16,149.73c2.01,1.44,4.94,2.64,8.02,2.64,4.58,0,7.25-2.82,7.25-6.9,0-3.78-1.85-5.94-6.53-8.04-5.66-2.34-9.15-5.76-9.15-11.46,0-6.3,4.47-10.98,11.21-10.98,3.55,0,6.12.96,7.66,1.98l-1.23,4.26c-1.13-.72-3.45-1.92-6.58-1.92-4.73,0-6.53,3.3-6.53,6.06,0,3.78,2.11,5.64,6.89,7.8,5.86,2.64,8.84,5.94,8.84,11.88,0,6.24-3.96,11.64-12.14,11.64-3.34,0-6.99-1.14-8.84-2.58l1.13-4.38h0Z"/>
    <path d="M140.81,142.53c.1,7.14,4.01,10.08,8.54,10.08,3.24,0,5.19-.66,6.89-1.5l.77,3.78c-1.59.84-4.32,1.8-8.28,1.8-7.66,0-12.24-5.88-12.24-14.64s4.42-15.66,11.67-15.66c8.12,0,10.28,8.34,10.28,13.68,0,1.08-.1,1.92-.15,2.46h-17.48ZM154.07,138.75c.05-3.36-1.18-8.58-6.27-8.58-4.58,0-6.58,4.92-6.94,8.58h13.21Z"/>
    <path d="M164.05,134.91c0-3-.05-5.46-.21-7.86h3.96l.21,4.68h.15c1.39-2.76,3.7-5.34,7.82-5.34,3.39,0,5.96,2.4,7.04,5.82h.1c.77-1.62,1.75-2.88,2.78-3.78,1.49-1.32,3.14-2.04,5.5-2.04,3.29,0,8.18,2.52,8.18,12.6v17.1h-4.42v-16.44c0-5.58-1.75-8.94-5.4-8.94-2.57,0-4.58,2.22-5.35,4.8-.21.72-.36,1.68-.36,2.64v17.94h-4.42v-17.4c0-4.62-1.75-7.98-5.19-7.98-2.83,0-4.88,2.64-5.6,5.28-.26.78-.36,1.68-.36,2.58v17.52h-4.42v-21.18h-.01Z"/>
  </g>
</svg>