<?xml version="1.0" encoding="UTF-8"?>
<svg id="Lag_1" data-name="Lag 1" xmlns="http://www.w3.org/2000/svg" xmlns:xlink="http://www.w3.org/1999/xlink" viewBox="0 0 2707.36 1205">
  <defs>
    <style>
      .cls-1 {
        letter-spacing: 0em;
      }

      .cls-2 {
        fill: #f5f8fc;
      }

      .cls-2, .cls-3 {
        stroke: #1f2a44;
        stroke-miterlimit: 10;
        stroke-width: 5px;
      }

      .cls-3 {
        fill: url(#Ikke-navngivet_forløb_25);
      }

      .cls-4 {
        font-size: 137.99px;
      }

      .cls-4, .cls-5, .cls-6, .cls-7 {
        font-family: MyriadPro-Regular, 'Myriad Pro';
      }

      .cls-5 {
        font-size: 24px;
      }

      .cls-6 {
        font-size: 36px;
      }

      .cls-7 {
        font-size: 48px;
      }

      .cls-8 {
        letter-spacing: 0em;
      }

      .cls-9 {
        letter-spacing: 0em;
      }

      .cls-10 {
        letter-spacing: 0em;
      }

      .cls-11 {
        letter-spacing: -.07em;
      }

      .cls-12 {
        letter-spacing: -.05em;
      }

      .cls-13 {
        letter-spacing: -.02em;
      }

      .cls-14 {
        letter-spacing: -.02em;
      }

      .cls-15 {
        letter-spacing: -.02em;
      }

      .cls-16 {
        letter-spacing: -.01em;
      }

      .cls-17 {
        letter-spacing: -.01em;
      }

      .cls-18 {
        letter-spacing: -.02em;
      }

      .cls-19 {
        letter-spacing: 0em;
      }

      .cls-20 {
        letter-spacing: 0em;
      }

      .cls-21 {
        letter-spacing: 0em;
      }

      .cls-22 {
        letter-spacing: 0em;
      }

      .cls-23 {
        letter-spacing: 0em;
      }

      .cls-24 {
        letter-spacing: 0em;
      }

      .cls-25 {
        letter-spacing: 0em;
      }

      .cls-26 {
        letter-spacing: 0em;
      }

      .cls-27 {
        letter-spacing: -.01em;
      }

      .cls-28 {
        letter-spacing: -.01em;
      }

      .cls-29 {
        letter-spacing: 0em;
      }

      .cls-30 {
        letter-spacing: 0em;
      }

      .cls-31 {
        letter-spacing: 0em;
      }

      .cls-32 {
        letter-spacing: 0em;
      }

      .cls-33 {
        letter-spacing: 0em;
      }

      .cls-34 {
        letter-spacing: .02em;
      }

      .cls-35 {
        letter-spacing: .02em;
      }

      .cls-36 {
        letter-spacing: .02em;
      }

      .cls-37 {
        letter-spacing: .02em;
      }

      .cls-38 {
        letter-spacing: .01em;
      }

      .cls-39 {
        letter-spacing: .03em;
      }

      .cls-40 {
        letter-spacing: 0em;
      }

      .cls-41 {
        letter-spacing: 0em;
      }

      .cls-42 {
        letter-spacing: 0em;
      }

      .cls-43 {
        letter-spacing: 0em;
      }

      .cls-44 {
        letter-spacing: 0em;
      }
    </style>
    <linearGradient id="Ikke-navngivet_forløb_25" data-name="Ikke-navngivet forløb 25" x1="2.5" y1="602.5" x2="2707.36" y2="602.5" gradientUnits="userSpaceOnUse">
      <stop offset=".23" stop-color="#cce0f4"/>
      <stop offset=".29" stop-color="#c8dff3"/>
      <stop offset=".32" stop-color="#bddaf1"/>
      <stop offset=".38" stop-color="#a1cfec"/>
      <stop offset=".45" stop-color="#73bde5"/>
      <stop offset=".54" stop-color="#35a5da"/>
      <stop offset=".57" stop-color="#1e9cd7"/>
      <stop offset=".69" stop-color="#037ac1"/>
      <stop offset=".82" stop-color="#005b97"/>
      <stop offset=".87" stop-color="#0075be"/>
    </linearGradient>
  </defs>
  <rect class="cls-3" x="2.5" y="2.5" width="2704.86" height="1200"/>
  <text class="cls-4" transform="translate(751.22 450.85)"><tspan class="cls-13" x="0" y="0">P</tspan><tspan x="69.96" y="0">o</tspan><tspan class="cls-35" x="145.72" y="0">r</tspan><tspan x="194.16" y="0">t</tspan><tspan class="cls-17" x="239.83" y="0">f</tspan><tspan x="278.33" y="0">olio 1. semes</tspan><tspan class="cls-20" x="1015.21" y="0">t</tspan><tspan x="1060.06" y="0">er</tspan></text>
  <text class="cls-6" transform="translate(1178.56 528.07)"><tspan class="cls-30" x="0" y="0">A</tspan><tspan x="21.78" y="0">f </tspan><tspan class="cls-40" x="39.92" y="0">S</tspan><tspan x="57.89" y="0">oumia El Id</tspan><tspan class="cls-42" x="223.67" y="0">r</tspan><tspan x="235.58" y="0">issi</tspan></text>
  <line class="cls-2" x1="206.34" y1="733.5" x2="206.34" y2="1018.5"/>
  <line class="cls-2" x1="524.96" y1="830.4" x2="524.96" y2="915.14"/>
  <line class="cls-2" x1="1057.53" y1="827.04" x2="1057.53" y2="918.51"/>
  <line class="cls-2" x1="1563.41" y1="829.59" x2="1563.41" y2="915.96"/>
  <line class="cls-2" x1="2128.47" y1="829.59" x2="2128.47" y2="915.96"/>
  <text class="cls-7" transform="translate(2061.79 806.78)"><tspan class="cls-11" x="0" y="0">T</tspan><tspan class="cls-1" x="20.45" y="0">ema 5 </tspan></text>
  <text class="cls-7" transform="translate(454.64 805.72)"><tspan class="cls-11" x="0" y="0">T</tspan><tspan class="cls-1" x="20.45" y="0">ema 2 </tspan></text>
  <text class="cls-5" transform="translate(185.83 715.27)"><tspan class="cls-44" x="0" y="0">I</tspan><tspan class="cls-26" x="5.98" y="0">n</tspan><tspan x="19.2" y="0">t</tspan><tspan class="cls-28" x="27.14" y="0">r</tspan><tspan class="cls-10" x="34.75" y="0">o</tspan></text>
  <text class="cls-7" transform="translate(1493.98 805.72)"><tspan class="cls-11" x="0" y="0">T</tspan><tspan class="cls-1" x="20.45" y="0">ema 4 </tspan></text>
  <text class="cls-7" transform="translate(993.46 806.25)"><tspan class="cls-11" x="0" y="0">T</tspan><tspan class="cls-1" x="20.45" y="0">ema 3 </tspan></text>
  <text class="cls-5" transform="translate(2430.32 715.27)"><tspan x="0" y="0">Eksamen</tspan></text>
  <line class="cls-2" x1="2475.15" y1="731.73" x2="2475.15" y2="1020.26"/>
  <line class="cls-2" x1="206.34" y1="875.32" x2="2475.15" y2="875.32"/>
  <text class="cls-5" transform="translate(425.06 963.36)"><tspan x="0" y="0">Grundlæggende </tspan><tspan class="cls-29" x="170.47" y="0">w</tspan><tspan x="187.89" y="0">eb</tspan><tspan x="-42.61" y="28.8">HTML, CSS, struktur og l</tspan><tspan class="cls-31" x="194.5" y="28.8">a</tspan><tspan class="cls-29" x="205.88" y="28.8">y</tspan><tspan x="216.94" y="28.8">ou</tspan><tspan class="cls-33" x="243.34" y="28.8">t</tspan><tspan x="251.22" y="28.8">.</tspan></text>
  <text class="cls-5" transform="translate(962.15 968.38)"><tspan x="0" y="0">UX og idéudvi</tspan><tspan class="cls-37" x="141.09" y="0">k</tspan><tspan x="152.76" y="0">ling</tspan><tspan class="cls-41" x="-92" y="28.8">R</tspan><tspan x="-79" y="28.8">esea</tspan><tspan class="cls-28" x="-33.88" y="28.8">r</tspan><tspan x="-26.27" y="28.8">ch, wi</tspan><tspan class="cls-28" x="31.14" y="28.8">r</tspan><tspan x="38.75" y="28.8">ef</tspan><tspan class="cls-23" x="57.78" y="28.8">r</tspan><tspan x="65.51" y="28.8">ames og bruge</tspan><tspan class="cls-39" x="215.55" y="28.8">r</tspan><tspan class="cls-16" x="224.12" y="28.8">f</tspan><tspan x="230.82" y="28.8">o</tspan><tspan class="cls-43" x="243.99" y="28.8">k</tspan><tspan class="cls-10" x="255.34" y="28.8">u</tspan><tspan class="cls-27" x="268.57" y="28.8">s</tspan><tspan x="277.81" y="28.8">.</tspan></text>
  <text class="cls-5" transform="translate(1482.11 963.36)"><tspan class="cls-18" x="0" y="0">V</tspan><tspan x="13.01" y="0">isuel kommuni</tspan><tspan class="cls-36" x="160.75" y="0">k</tspan><tspan class="cls-26" x="172.44" y="0">a</tspan><tspan x="183.91" y="0">tion</tspan><tspan x="-128.99" y="28.8">Udt</tspan><tspan class="cls-34" x="-91.98" y="28.8">r</tspan><tspan class="cls-10" x="-83.53" y="28.8">y</tspan><tspan class="cls-38" x="-72.23" y="28.8">k</tspan><tspan x="-60.63" y="28.8">, impleme</tspan><tspan class="cls-26" x="38.44" y="28.8">n</tspan><tspan class="cls-21" x="51.66" y="28.8">t</tspan><tspan x="59.46" y="28.8">e</tspan><tspan class="cls-41" x="71.48" y="28.8">r</tspan><tspan x="79.43" y="28.8">ing og simple i</tspan><tspan class="cls-25" x="225.73" y="28.8">n</tspan><tspan class="cls-22" x="238.95" y="28.8">t</tspan><tspan class="cls-8" x="246.75" y="28.8">e</tspan><tspan class="cls-24" x="258.78" y="28.8">r</tspan><tspan class="cls-8" x="266.5" y="28.8">aktione</tspan><tspan class="cls-12" x="341.41" y="28.8">r</tspan><tspan x="347.98" y="28.8">.</tspan></text>
  <text class="cls-5" transform="translate(2011.83 963.36)"><tspan class="cls-44" x="0" y="0">I</tspan><tspan class="cls-10" x="5.98" y="0">ndhold og vi</tspan><tspan class="cls-43" x="132.45" y="0">r</tspan><tspan x="140.4" y="0">ksomhedssi</tspan><tspan class="cls-22" x="257.85" y="0">t</tspan><tspan x="265.65" y="0">e</tspan><tspan class="cls-33" x="-71.92" y="28.8">S</tspan><tspan class="cls-21" x="-60.15" y="28.8">t</tspan><tspan x="-52.35" y="28.8">o</tspan><tspan class="cls-34" x="-39.18" y="28.8">r</tspan><tspan x="-30.73" y="28.8">y</tspan><tspan class="cls-22" x="-19.43" y="28.8">t</tspan><tspan x="-11.63" y="28.8">ellin</tspan><tspan class="cls-15" x="30.66" y="28.8">g</tspan><tspan x="43.72" y="28.8">, sama</tspan><tspan class="cls-43" x="106.43" y="28.8">r</tspan><tspan x="114.37" y="28.8">bejde og RF</tspan><tspan class="cls-14" x="232.81" y="28.8">X</tspan><tspan class="cls-9" x="246.01" y="28.8">-p</tspan><tspan class="cls-28" x="267.03" y="28.8">r</tspan><tspan x="274.64" y="28.8">ojek</tspan><tspan class="cls-19" x="316.93" y="28.8">t</tspan><tspan x="324.73" y="28.8">e</tspan><tspan class="cls-32" x="336.75" y="28.8">t</tspan><tspan x="344.62" y="28.8">.</tspan></text>
</svg>